<?xml version="1.0" standalone="no"?>
<!DOCTYPE svg PUBLIC "-//W3C//DTD SVG 20010904//EN"
 "http://www.w3.org/TR/2001/REC-SVG-20010904/DTD/svg10.dtd">
<svg version="1.0" xmlns="http://www.w3.org/2000/svg"
 width="512.000000pt" height="512.000000pt" viewBox="0 0 512.000000 512.000000"
 preserveAspectRatio="xMidYMid meet">

<g transform="translate(0.000000,512.000000) scale(0.100000,-0.100000)"
fill="#000000" stroke="none">
<path d="M3124 4951 c-48 -12 -133 -62 -160 -94 -14 -17 -37 -53 -52 -81 l-27
-51 0 -565 0 -565 34 -63 c38 -70 69 -100 145 -140 51 -27 52 -27 294 -30
l242 -4 0 -174 c0 -172 0 -175 25 -199 49 -50 63 -43 323 174 l240 200 268 3
269 3 63 34 c70 38 100 69 140 145 l27 51 0 565 0 565 -27 51 c-40 76 -70 107
-140 145 l-63 34 -785 2 c-432 1 -799 -2 -816 -6z m1580 -165 c18 -8 46 -31
62 -52 l29 -37 0 -538 c0 -698 40 -632 -383 -639 l-287 -5 -182 -153 -183
-153 0 130 c0 190 28 175 -327 181 l-290 5 -37 29 c-67 51 -66 39 -66 605 0
337 4 519 11 538 14 37 47 73 84 89 45 20 1521 20 1569 0z"/>
<path d="M3280 4480 l0 -80 400 0 400 0 0 80 0 80 -400 0 -400 0 0 -80z"/>
<path d="M4240 4480 l0 -80 160 0 160 0 0 80 0 80 -160 0 -160 0 0 -80z"/>
<path d="M3280 4160 l0 -80 640 0 640 0 0 80 0 80 -640 0 -640 0 0 -80z"/>
<path d="M3280 3840 l0 -80 640 0 640 0 0 80 0 80 -640 0 -640 0 0 -80z"/>
<path d="M1643 4465 c-176 -48 -317 -195 -353 -370 -8 -37 -10 -193 -8 -502
l4 -448 27 -80 c35 -106 88 -194 166 -277 l63 -68 -159 0 c-178 0 -240 -11
-334 -61 -70 -38 -157 -126 -193 -197 -56 -111 -56 -109 -56 -834 l0 -668 80
0 79 0 3 683 3 682 27 51 c40 76 70 107 140 145 l63 34 176 3 175 4 193 -464
c112 -270 201 -470 213 -481 11 -9 33 -17 48 -17 15 0 37 8 48 17 12 11 101
211 213 481 l193 464 175 -4 176 -3 63 -34 c70 -38 100 -69 140 -145 l27 -51
3 -268 3 -269 -70 -107 c-39 -59 -71 -110 -71 -114 0 -11 120 -88 128 -83 5 3
73 102 152 220 l143 216 179 0 178 0 -272 -362 c-150 -199 -289 -375 -308
-390 -20 -15 -59 -34 -88 -40 l-52 -13 0 -79 0 -79 53 7 c61 8 158 51 206 92
19 15 175 216 348 446 l313 418 156 0 c147 0 156 1 177 23 20 19 29 58 65 277
23 140 42 263 42 273 0 10 -11 29 -25 42 -24 25 -27 25 -190 25 -146 0 -165 2
-165 16 0 78 -80 183 -162 210 -91 30 -196 1 -255 -70 -16 -20 -94 -182 -173
-362 l-145 -326 -6 158 c-6 169 -16 211 -72 307 -34 57 -122 139 -185 171 -89
45 -152 56 -326 56 l-160 0 56 58 c104 106 166 224 194 370 17 90 20 856 4
943 -34 177 -177 327 -355 374 -82 21 -634 21 -712 0z m745 -184 c70 -38 101
-70 139 -145 22 -43 27 -68 31 -158 5 -124 5 -124 -73 -79 -67 38 -121 100
-156 177 -51 112 -90 113 -200 8 -120 -114 -134 -119 -369 -119 -190 0 -197
-1 -259 -27 l-64 -28 5 88 c6 92 29 156 82 219 27 32 112 82 160 94 17 4 168
7 336 6 l305 -2 63 -34z m-75 -453 c53 -50 137 -99 205 -119 l42 -12 0 -232
c0 -127 -5 -258 -11 -291 -17 -98 -78 -210 -155 -288 -277 -276 -741 -192
-903 165 -43 96 -51 159 -51 425 l0 242 48 31 c90 57 120 63 284 56 197 -10
289 13 399 99 l44 34 24 -31 c14 -18 47 -53 74 -79z m1444 -1214 c20 -20 24
-31 19 -57 -20 -104 -20 -104 7 -131 26 -26 27 -26 192 -26 146 0 165 -2 165
-16 0 -17 -36 -240 -45 -281 l-5 -23 -340 0 c-187 0 -340 4 -340 8 0 4 50 120
111 257 67 153 120 259 135 273 33 29 69 28 101 -4z m-1837 -291 c-1 -222 -2
-236 -16 -203 -8 19 -46 109 -84 200 -38 91 -76 182 -84 203 l-16 37 100 0
100 0 0 -237z m344 200 c-8 -21 -46 -112 -84 -203 -38 -91 -76 -181 -84 -200
-14 -33 -15 -19 -16 203 l0 237 100 0 100 0 -16 -37z"/>
<path d="M1675 3591 c-45 -20 -70 -60 -70 -112 0 -42 5 -53 33 -81 28 -28 39
-33 82 -33 43 0 54 5 82 33 28 28 33 39 33 82 0 42 -5 54 -31 81 -33 33 -92
46 -129 30z"/>
<path d="M2235 3591 c-45 -20 -70 -60 -70 -112 0 -42 5 -53 33 -81 28 -28 39
-33 82 -33 43 0 54 5 82 33 28 28 33 39 33 82 0 42 -5 54 -31 81 -33 33 -92
46 -129 30z"/>
<path d="M1759 3119 c-40 -60 -41 -63 -23 -77 123 -94 405 -94 528 0 18 14 17
17 -23 77 -33 48 -47 61 -59 55 -69 -30 -125 -43 -182 -43 -57 0 -113 13 -182
43 -12 6 -26 -7 -59 -55z"/>
<path d="M786 3509 c-62 -15 -153 -68 -197 -116 -22 -24 -55 -74 -72 -111
l-32 -67 -3 -1207 -2 -1208 -136 0 c-131 0 -136 -1 -161 -26 -25 -25 -25 -26
-22 -168 4 -141 5 -143 41 -218 45 -91 103 -147 196 -191 l67 -32 2096 0 2095
0 76 37 c91 45 147 103 191 196 30 63 32 75 35 209 4 141 4 142 -21 167 -25
25 -29 26 -162 26 l-135 0 0 1200 0 1200 -80 0 -80 0 0 -1200 0 -1199 -667 -3
-668 -3 -50 -23 c-27 -13 -71 -41 -97 -63 -83 -69 -81 -69 -438 -69 -357 0
-355 0 -438 69 -26 22 -69 50 -97 63 l-50 23 -667 3 -668 3 0 1176 c0 894 3
1186 12 1217 16 55 99 138 154 154 24 7 100 12 178 12 l136 0 0 80 0 80 -147
-1 c-82 -1 -165 -5 -187 -10z m1168 -2883 c19 -8 59 -34 89 -59 100 -82 102
-82 517 -82 415 0 417 0 517 82 96 78 31 73 923 73 l800 0 0 -56 c0 -31 -5
-75 -12 -98 -16 -55 -99 -138 -154 -154 -60 -18 -4088 -18 -4148 0 -55 16
-138 99 -154 154 -7 23 -12 67 -12 98 l0 56 800 0 c666 0 806 -2 834 -14z"/>
<path d="M825 3175 c-25 -24 -25 -27 -25 -200 l0 -175 80 0 80 0 0 120 0 120
80 0 80 0 0 80 0 80 -135 0 c-131 0 -137 -1 -160 -25z"/>
<path d="M1280 1440 l0 -480 80 0 80 0 0 480 0 480 -80 0 -80 0 0 -480z"/>
<path d="M2560 1440 l0 -480 80 0 80 0 0 480 0 480 -80 0 -80 0 0 -480z"/>
<path d="M1920 1360 l0 -80 80 0 80 0 0 80 0 80 -80 0 -80 0 0 -80z"/>
<path d="M4160 1240 l0 -120 -120 0 -120 0 0 -80 0 -80 175 0 c238 0 225 -13
225 225 l0 175 -80 0 -80 0 0 -120z"/>
<path d="M1920 1040 l0 -80 80 0 80 0 0 80 0 80 -80 0 -80 0 0 -80z"/>
</g>
</svg>
