<?xml version="1.0" ?><!DOCTYPE svg  PUBLIC '-//W3C//DTD SVG 1.1//EN'  'http://www.w3.org/Graphics/SVG/1.1/DTD/svg11.dtd'><svg height="512px" style="enable-background:new 0 0 512 512;" version="1.1" viewBox="0 0 512 512" width="512px" xml:space="preserve" xmlns="http://www.w3.org/2000/svg" xmlns:xlink="http://www.w3.org/1999/xlink"><g id="_x36_8_x2C__logo_x2C__design_x2C__creative_x2C__idea_x2C__design_process"><g><path d="M296.922,272.484c-0.129-1.793-0.201-3.586-0.201-5.32    c0-8.908,1.634-17.439,4.613-25.336c-8.735-0.115-17.121-1.793-24.874-4.772c-5.32-2.054-10.325-4.714-14.952-7.896    c2.85,11.742,8.879,22.212,17.151,30.483C283.923,264.907,290.082,269.274,296.922,272.484 M344.571,207.006    c-11.699,4.656-21.721,12.639-28.892,22.762c-0.928,1.33-1.809,2.689-2.646,4.078c5.48-0.926,10.73-2.545,15.631-4.743    c7.693-3.441,14.576-8.329,20.318-14.316C347.694,212.068,346.221,209.465,344.571,207.006z M268.044,181.988    c-2.602,4.629-4.685,9.603-6.101,14.78c-1.476,5.408-2.257,11.135-2.257,17.093v0.086v0.087v0.058v0.088v0.086v0.087v0.087v0.087    v0.058v0.086v0.029v0.059v0.086v0.088v0.086v0.059l0.014,0.086v0.088v0.086v0.088v0.057l0.015,0.029v0.057v0.088v0.086v0.318    v0.088l0.016,0.144v0.058v0.029c0.042,0.867,0.086,1.764,0.158,2.604c5.611,4.858,12.06,8.763,19.088,11.482    c7.188,2.746,15.025,4.25,23.254,4.25c0.751,0,1.504,0,2.255-0.029c1.592-3.123,3.413-6.131,5.424-8.993    c7.591-10.73,18.076-19.291,30.294-24.556c-1.17-1.388-2.4-2.718-3.672-4.02l-0.188-0.174    c-11.727-11.713-27.909-18.943-45.783-18.943C282.651,177.998,275.059,179.416,268.044,181.988z M264.313,175.829l0.088-0.029    c8.097-3.181,16.934-4.917,26.158-4.917c19.827,0,37.815,8.041,50.802,21.027l0.217,0.23    c13.26,13.391,20.839,31.467,20.839,50.584c0,19.84-8.04,37.83-21.056,50.815c-12.986,13.015-30.975,21.055-50.802,21.055    c-19.825,0-37.799-8.04-50.8-21.055c-13.015-12.985-21.055-30.976-21.055-50.815c0-19.812,8.04-37.771,21.041-50.786    C246.686,184.998,255.03,179.474,264.313,175.829z M340.551,283.881c-0.91,0.201-1.821,0.404-2.748,0.578    c-4.365,0.81-8.85,1.242-13.36,1.242h-0.202h-0.203h-0.202h-0.188h-0.146h-0.059h-0.201h-0.188h-0.204h-0.202l-0.071-0.028h-0.13    h-0.189h-0.188h-0.202l-0.202-0.028l0,0h-0.203h-0.188l-0.188-0.029h-0.203h-0.145h-0.059h-0.188l-0.201-0.028h-0.188    l-0.204-0.029h-0.086h-0.115l-0.188-0.028h-0.188l-0.204-0.029h-0.202l0,0l-0.188-0.029h-0.188l-0.203-0.029h-0.202l-0.188-0.028    h-0.188l-0.203-0.028l-0.578-0.059l-0.203-0.029l-0.188-0.028h-0.188l-0.202-0.029h-0.016l-0.174-0.028l-0.188-0.029h-0.201    l-0.334-0.059h-0.041l-0.204-0.028l-0.202-0.029c-0.824-0.116-1.663-0.231-2.488-0.376l-0.188-0.028l-0.188-0.028l-0.201-0.029    l-0.059-0.029h-0.13l-2.126-0.434l-0.174-0.029l-0.391-0.087l-0.188-0.058l-0.203-0.028l-0.174-0.058h-0.114l-0.088-0.029    l-0.188-0.059l-0.188-0.028l-0.204-0.058l-0.172-0.029l-0.029-0.029l-0.174-0.029l-0.376-0.086l-0.188-0.059l-0.565-0.145    l-0.188-0.058l-1.085-0.289l-0.043-0.028l-0.188-0.029l-0.174-0.059l-0.201-0.057l-0.174-0.059l-0.072-0.029l-0.13-0.028    l-0.174-0.058l-0.188-0.059l-0.565-0.173l-0.172-0.058l-0.203-0.059l-0.174-0.057l-0.086-0.029l-0.102-0.029l-0.188-0.059    L301.579,282l-0.188-0.058v-0.029l-0.174-0.058c-10.484-3.557-19.913-9.516-27.592-17.208    c-12.292-12.292-20.158-29.009-20.967-47.577l-0.014-0.114v-0.116l-0.016-0.115v-0.203v-0.115v-0.116l-0.014-0.115v-0.116    l-0.014-0.115v-0.087v-0.116v-0.028v-0.087v-0.115v-0.115v-0.116l-0.014-0.087v-0.115v-0.116v-0.116l-0.016-0.058v-0.058v-0.115    v-0.087v-0.116v-0.115v-0.115v-0.117v-0.086v-0.115c0-6.508,0.896-12.87,2.546-18.944c0.751-2.776,1.678-5.466,2.732-8.099    c-4.785,2.807-9.183,6.219-13.071,10.123c-11.729,11.714-18.958,27.91-18.958,45.783s7.243,34.07,18.958,45.783    c11.699,11.713,27.894,18.973,45.781,18.973c17.874,0,34.057-7.26,45.783-18.973C337.818,287.033,339.221,285.5,340.551,283.881z     M351.889,221.9c-5.914,5.641-12.783,10.297-20.332,13.681c-6.971,3.123-14.533,5.177-22.443,5.929    c-3.397,7.867-5.293,16.543-5.293,25.654c0,1.792,0.088,3.557,0.203,5.205l0.318,3.065c4.048,1.302,8.271,2.228,12.639,2.748    h0.015h0.158l0.521,0.058l0.146,0.029l0.375,0.029l0.174,0.029h0.174l0.086,0.028h0.086h0.189l0.172,0.028h0.174l0.189,0.029    h0.014h0.158l0.174,0.029h0.174l0.174,0.027h0.144h0.03h0.188l0.174,0.029h0.174h0.188l0.072,0.029h0.102h0.174h0.174l0.188,0.029    h0.174h0.014h0.174h0.174h0.174l0.188,0.028h0.13h0.058h0.174h0.174h0.174h0.188h0.072h0.115h0.174h0.174h0.188h0.188    c4.164,0,8.185-0.376,12.061-1.099c3.587-0.664,7.056-1.648,10.44-2.893c5.32-9.398,8.357-20.273,8.357-31.871    C355.301,235.436,354.102,228.438,351.889,221.9z M174.267,170.739l-17.426,17.411l34.49,17.092L174.267,170.739z M28.951,62.109    l7.144,7.145l19.262-19.233l-7.144-7.173c-1.967-1.967-4.571-2.949-7.159-2.949c-2.53,0-5.061,0.926-6.984,2.775l-5.119,5.119    c-1.967,1.967-2.95,4.57-2.95,7.174C26.001,57.541,26.984,60.143,28.951,62.109z M60.388,55.023l-19.26,19.263l2.862,2.862    l19.248-19.262L60.388,55.023z M68.27,62.92L49.022,82.182c33.955,33.953,67.909,67.908,101.891,101.861l19.232-19.232    C136.191,130.828,102.238,96.873,68.27,62.92z M134.861,119.461l42.704,42.688l0.072,0.059l0.058,0.086l0.058,0.059l0.072,0.059    l0.058,0.057l0.044,0.029v0.029l0.028,0.029l0.03,0.028l0,0c0.29,0.317,0.52,0.665,0.665,1.042l0.028,0.057l23.658,47.807    l0.03,0.059l0.014,0.029l0,0l0.014,0.058l0.03,0.028l0,0l0.028,0.059v0.029l0.016,0.028l0.014,0.029v0.028l0.014,0.029    l0.014,0.059l0.03,0.028v0.058l0,0l0.028,0.029v0.029v0.029l0.016,0.057h0.014v0.029l0.014,0.059l0,0l0.014,0.057v0.029l0,0    l0.016,0.058l0.014,0.028v0.029v0.059l0,0l0.014,0.028l0.014,0.058l0,0v0.059v0.029l0,0l0.014,0.057v0.029v0.029v0.059l0,0v0.028    l0.016,0.058l0,0v0.059v0.028v0.029v0.028v0.028v0.029v0.058l0,0l-0.016,0.059v0.028l0,0v0.058v0.029v0.029l-0.014,0.029v0.028    v0.028v0.059l0,0l-0.014,0.058l-0.014,0.029l0,0v0.058v0.029l-0.014,0.029l-0.016,0.058l0,0v0.028l-0.014,0.029v0.028    l-0.014,0.058l0,0l-0.014,0.059l-0.016,0.028l0,0l-0.014,0.058l-0.014,0.029v0.029l-0.014,0.029v0.028l-0.016,0.028l-0.014,0.059    h-0.014l-0.014,0.058l0,0l-0.016,0.029l-0.028,0.058l-0.014,0.059l-0.016,0.028l0,0l-0.028,0.058l0,0l-0.03,0.059l-0.014,0.027    l-0.014,0.029l-0.03,0.059l-0.028,0.028v0.028l-0.028,0.059l-0.03,0.029l-0.028,0.058h-0.016l-0.042,0.058v0.029l-0.044,0.058l0,0    l-0.043,0.058v0.029l-0.058,0.059l0,0l-0.058,0.057l0,0l-0.058,0.059v0.029l-0.058,0.058l0,0l-0.058,0.058l0,0l-0.058,0.057    l-0.058,0.059l0,0l-0.058,0.058h-0.014l-0.058,0.058h-0.014l-0.058,0.059l0,0l-0.058,0.058h-0.014l-0.058,0.058h-0.014    l-0.058,0.059l0,0l-0.058,0.029h-0.03l-0.058,0.057h-0.014l-0.058,0.029l-0.014,0.029l-0.058,0.029h-0.03l-0.042,0.028    l-0.044,0.029l-0.03,0.028h-0.042l-0.043,0.029l0,0l-0.058,0.028h-0.014l-0.03,0.028h-0.042l-0.058,0.029l-0.03,0.029h-0.014    h-0.043l-0.014,0.029h-0.044l-0.044,0.028h-0.014h-0.042h-0.016l-0.028,0.029h-0.058l0,0l-0.044,0.028h-0.044l0,0l-0.058,0.029    h-0.028h-0.03h-0.042l0,0l-0.044,0.029h-0.044h-0.014h-0.058h-0.014l-0.03,0.029h-0.042l0,0h-0.058h-0.03h-0.028h-0.044h-0.014    l-0.03,0.028h-0.058l0,0h-0.042h-0.044l0,0h-0.058h-0.03h-0.028h-0.044h-0.014h-0.03h-0.056l0,0h-0.058h-0.03h-0.014h-0.044    l-0.028-0.028h-0.03h-0.058l0,0h-0.044h-0.042l0,0h-0.058l-0.03-0.029h-0.014h-0.044h-0.028h-0.03l-0.058-0.029l0,0h-0.042h-0.044    l0,0l-0.058-0.029h-0.028l0,0l-0.058-0.028h-0.03h-0.028l-0.044-0.029l0,0h-0.044l-0.044-0.028h-0.042l-0.044-0.029h-0.014h-0.044    l-0.028-0.029h-0.016l-0.058-0.029l0,0l-0.042-0.028h-0.044l0,0l-0.044-0.028l-0.044-0.029l-47.864-23.688h-0.03l-0.042-0.028    l-0.13-0.058l-0.146-0.087l0,0l-0.232-0.115l-0.014-0.028h-0.014l-0.044-0.029l0,0l-0.274-0.232h-0.016l0,0l-0.1-0.086l0,0    l-0.044-0.029l-0.014-0.029h-0.016l-0.028-0.029h-0.014l-0.058-0.057l-0.13-0.146l-0.131-0.114l-0.058-0.088l-50.814-50.815    v148.138l85.072,85.086h232.775V119.461H134.861z M485.999,200.354h-47.665v211.909h47.665v-12.87h-23.586    c-1.953,0-3.559-1.59-3.559-3.558c0-1.966,1.605-3.557,3.559-3.557h23.586v-11.28h-13.377c-1.953,0-3.559-1.59-3.559-3.557    s1.605-3.557,3.559-3.557h13.377V363.27h-23.586c-1.953,0-3.559-1.591-3.559-3.557c0-1.967,1.605-3.559,3.559-3.559h23.586    v-11.308h-13.377c-1.953,0-3.559-1.591-3.559-3.528c0-1.967,1.605-3.558,3.559-3.558h13.377v-10.614h-23.586    c-1.953,0-3.559-1.591-3.559-3.557c0-1.967,1.605-3.559,3.559-3.559h23.586v-11.307h-13.377c-1.953,0-3.559-1.592-3.559-3.529    c0-1.967,1.605-3.558,3.559-3.558h13.377v-10.614h-23.586c-1.953,0-3.559-1.59-3.559-3.557s1.605-3.558,3.559-3.558h23.586    v-11.309h-13.377c-1.953,0-3.559-1.591-3.559-3.558c0-1.938,1.605-3.557,3.559-3.557h13.377V254.9h-23.586    c-1.953,0-3.559-1.619-3.559-3.558c0-1.966,1.605-3.557,3.559-3.557h23.586v-11.309h-13.377c-1.953,0-3.559-1.591-3.559-3.558    c0-1.938,1.605-3.557,3.559-3.557h13.377v-10.586h-23.586c-1.953,0-3.559-1.619-3.559-3.557c0-1.967,1.605-3.559,3.559-3.559    h23.586V200.354z M88.081,329.402l2.444,54.546l54.531,2.43L88.081,329.402z M83.583,387.478l-2.979-66.896    c-0.086-1.967,1.432-3.615,3.385-3.703c1.027-0.028,1.965,0.377,2.66,1.042l69.904,69.874c1.374,1.389,1.374,3.645,0,5.033    c-0.811,0.809-1.909,1.128-2.95,1.012l-66.637-2.979C85.115,390.803,83.669,389.299,83.583,387.478z M266.656,464.987    c1.967,0,3.557,1.591,3.557,3.557c0,1.938-1.59,3.558-3.557,3.558H76.352c-1.965,0-3.557-1.619-3.557-3.558    c0-1.966,1.591-3.557,3.557-3.557H266.656z M56.875,464.987c1.951,0,3.543,1.591,3.543,3.557c0,1.938-1.592,3.558-3.543,3.558    H33.087c-1.967,0-3.559-1.619-3.559-3.558c0-1.966,1.592-3.557,3.559-3.557H56.875z M438.523,464.466    c1.952,0,3.543,1.591,3.543,3.558s-1.591,3.558-3.543,3.558h-90.178c-1.951,0-3.557-1.591-3.557-3.558s1.605-3.558,3.557-3.558    H438.523z M296.041,101.703c-1.967,0-3.559-1.619-3.559-3.557c0-1.967,1.592-3.559,3.559-3.559h140.298    c1.968,0,3.558,1.592,3.558,3.559v64.697c0,1.967-1.59,3.557-3.558,3.557c-1.967,0-3.557-1.59-3.557-3.557v-61.141H296.041z     M427.691,448.241c1.953,0,3.558,1.591,3.558,3.558s-1.604,3.558-3.558,3.558H152.677c-1.967,0-3.557-1.591-3.557-3.558    s1.59-3.558,3.557-3.558H427.691z M43.051,244.46l7.996,178.938l178.951,8.012L43.051,244.46z" style="fill-rule:evenodd;clip-rule:evenodd;"/></g></g><g id="Layer_1"/></svg>