<?xml version="1.0" ?><!DOCTYPE svg  PUBLIC '-//W3C//DTD SVG 1.1//EN'  'http://www.w3.org/Graphics/SVG/1.1/DTD/svg11.dtd'><svg height="8.4666mm" style="shape-rendering:geometricPrecision; text-rendering:geometricPrecision; image-rendering:optimizeQuality; fill-rule:evenodd; clip-rule:evenodd" version="1.1" viewBox="0 0 846.66 846.66" width="8.4666mm" xml:space="preserve" xmlns="http://www.w3.org/2000/svg" xmlns:xlink="http://www.w3.org/1999/xlink"><defs><style type="text/css">
   <![CDATA[
    .fil0 {fill:black;fill-rule:nonzero}
   ]]>
  </style></defs><g id="Layer_x0020_1"><path class="fil0" d="M113.77 339.11c41.86,0 79.72,24.67 97.04,62.52l148.05 0 19.07 -43.87c3.4,-7.8 11.03,-12.46 19.03,-12.47l148.34 -0.05c5.57,0 10.63,2.18 14.37,5.75l72.73 59.14c15.09,-42.31 55.33,-71.02 100.49,-71.02 58.69,0 106.63,47.94 106.63,106.63l0 201.07c0,58.69 -47.94,106.63 -106.63,106.63 -41.86,0 -79.73,-24.67 -97.04,-62.52l-114.93 0c-25.51,26.27 -51.03,52.54 -76.54,78.82 -8.31,7.9 -21.46,7.57 -29.36,-0.74l-68.59 -71.95 -138.67 0c-18.57,34.52 -54.56,56.39 -93.99,56.39 -58.69,0 -106.63,-47.94 -106.63,-106.63l0 -201.07c0,-58.69 47.94,-106.63 106.63,-106.63zm249.41 -123.02c-16.67,-21.58 16.19,-46.95 32.86,-25.37l9.81 12.68 45.83 -50.42c18.37,-20.19 49.12,7.78 30.74,27.98l-62.47 68.69c-8.67,9.49 -23.86,8.98 -31.79,-1.29l-24.98 -32.27zm60.15 -144.89c71.86,0 130.12,58.26 130.12,130.13 0,3.5 -0.14,6.97 -0.41,10.4l251.35 0c27.38,0 27.38,41.64 0,41.64l-261.76 0c-20.67,47.31 -67.41,78.08 -119.3,78.08 -51.88,0 -98.63,-30.77 -119.3,-78.08l-261.76 0c-27.38,0 -27.38,-41.64 0,-41.64l251.35 0c-0.27,-3.43 -0.41,-6.9 -0.41,-10.4 0,-71.87 58.26,-130.13 130.12,-130.13zm0 41.64c-48.87,0 -88.48,39.62 -88.48,88.49 0,48.11 38.86,88.48 88.48,88.48 48.86,0 88.48,-39.62 88.48,-88.48 0,-48.87 -39.61,-88.49 -88.48,-88.49zm40.15 577.64l-54.56 -52.62c-19.69,-18.94 9.1,-48.87 28.79,-29.93l54.7 52.75c9.89,-10.18 19.18,-21 28.68,-31.57l-56.02 -55.86c-19.36,-19.26 9.91,-48.7 29.28,-29.44l54.53 54.38 21.18 -23.57 -100.17 -91.75 -44.89 52.38c-4.25,4.94 -10.75,7.82 -17.73,7.16l-61.89 -6.07c-13.05,-0.84 -22.21,-13.51 -18.69,-26.25l18.46 -66.82 -124.78 0c0.02,0.82 0.03,1.64 0.03,2.47l0 201.07c0,2.9 -0.12,5.76 -0.35,8.6l135.23 0c6.46,0 12.23,2.94 16.05,7.56l58.88 61.77 33.27 -34.26zm162.78 -231.84l-88.25 -71.76 -127.46 0c-19.34,44.47 -23.8,61.73 -37.28,110.5l27.21 2.67 51.81 -60.45c7.94,-9.28 22.32,-9.68 30.75,-0.88l130.2 119.24c8.4,7.68 9.01,20.7 1.41,29.15l-55.79 62.17 67.43 0c-0.02,-0.82 -0.03,-1.64 -0.03,-2.47l0 -188.17zm106.63 -77.89c-35.7,0 -64.99,29.29 -64.99,64.99l0 201.07c0,35.71 29.29,65 64.99,65 35.7,0 64.99,-29.29 64.99,-65l0 -201.07c0,-35.7 -29.29,-64.99 -64.99,-64.99zm-619.12 0c-35.7,0 -64.99,29.29 -64.99,64.99l0 201.07c0,35.71 29.29,65 64.99,65 35.7,0 64.99,-29.29 64.99,-65l0 -201.07c0,-35.7 -29.29,-64.99 -64.99,-64.99z"/></g></svg>